              <svg
                viewBox="0 0 174 25"
                fill="none"
                xmlns="http://www.w3.org/2000/svg"
              >
                <path
                  d="M3.9685 11.5163C3.95353 11.7239 3.93855 11.9315 3.92358 12.1391C3.92358 12.3319 3.9086 12.495 3.9086 12.5988C3.9086 12.7026 3.9086 12.7915 3.9086 12.8805C3.9086 12.9695 3.92358 13.0436 3.92358 13.1029H3.75885C3.71392 12.7471 3.63904 12.4653 3.53421 12.2577C3.42939 12.0501 3.29461 11.9018 3.12988 11.8129C2.96515 11.7239 2.77046 11.6794 2.54583 11.6794H2.24632C2.09657 11.6794 1.99174 11.6942 1.91686 11.7091C1.84198 11.7387 1.79706 11.7832 1.76711 11.8573C1.73716 11.9315 1.73716 12.0353 1.73716 12.1984V15.9945C1.73716 16.1428 1.75213 16.2614 1.76711 16.3356C1.79706 16.4097 1.84198 16.4542 1.91686 16.4839C1.99174 16.5135 2.09657 16.5135 2.24632 16.5135H2.62071C2.84534 16.5135 3.04002 16.469 3.20475 16.3652C3.36948 16.2763 3.51924 16.1131 3.63904 15.8759C3.75885 15.6535 3.8487 15.3421 3.9086 14.9417H4.07333C4.05836 15.1048 4.05836 15.2976 4.05836 15.5497C4.05836 15.6683 4.05836 15.8166 4.05836 16.0242C4.05836 16.2318 4.07333 16.4394 4.10328 16.6618C3.8487 16.647 3.56417 16.647 3.24968 16.647C2.93519 16.647 2.65066 16.647 2.41105 16.647C2.24632 16.647 2.02169 16.647 1.75213 16.647C1.48257 16.647 1.18306 16.647 0.868578 16.647C0.554093 16.647 0.269559 16.6618 0 16.6618V16.5135C0.16473 16.4987 0.269559 16.4839 0.359412 16.4542C0.434289 16.4245 0.494191 16.3652 0.524142 16.2763C0.554093 16.1873 0.569068 16.0538 0.569068 15.8759V12.2874C0.569068 12.1094 0.554093 11.976 0.524142 11.887C0.494191 11.798 0.449265 11.7387 0.359412 11.7091C0.284534 11.6794 0.16473 11.6646 0.0149755 11.6498V11.5015C0.284534 11.5015 0.569068 11.5163 0.883554 11.5163C1.19804 11.5163 1.48257 11.5163 1.76711 11.5163C2.03667 11.5163 2.2613 11.5163 2.42603 11.5163C2.65066 11.5163 2.90524 11.5163 3.18978 11.5163C3.48929 11.5311 3.74387 11.5311 3.9685 11.5163ZM2.81539 14.0223V14.1706H1.5275V14.0223H2.81539ZM3.02505 13.0585C3.01007 13.3402 2.9951 13.5478 2.9951 13.6961C2.9951 13.8444 2.9951 13.9778 2.9951 14.0965C2.9951 14.2151 2.9951 14.3485 2.9951 14.4968C2.9951 14.6451 3.01007 14.8527 3.02505 15.1345H2.86032C2.83037 14.9713 2.78544 14.8082 2.72554 14.6599C2.66564 14.5117 2.56081 14.393 2.441 14.3041C2.3212 14.2151 2.15647 14.1706 1.96179 14.1706V14.0223C2.15647 14.0223 2.3212 13.963 2.441 13.8592C2.56081 13.7554 2.65066 13.6219 2.71056 13.4737C2.77046 13.3254 2.81539 13.1919 2.84534 13.0585H3.02505Z"
                  fill="#000"
                ></path>
                <path
                  d="M7.2032 11.5163V11.6646C7.03847 11.6646 6.90369 11.6942 6.82881 11.7239C6.73896 11.7536 6.67906 11.8129 6.64911 11.9018C6.61916 11.9908 6.60418 12.1243 6.60418 12.3022V16.0093C6.60418 16.1576 6.61916 16.2763 6.63413 16.3504C6.64911 16.4245 6.69403 16.469 6.76891 16.4987C6.82881 16.5283 6.93364 16.5283 7.06842 16.5283H7.42783C7.65247 16.5283 7.86212 16.4542 8.04183 16.3207C8.22153 16.1873 8.38626 15.9945 8.50607 15.7424C8.62587 15.4903 8.71572 15.2086 8.76065 14.8972H8.92538C8.91041 15.0603 8.91041 15.2827 8.91041 15.5348C8.91041 15.6535 8.91041 15.8166 8.91041 16.0242C8.91041 16.2318 8.92538 16.4542 8.95533 16.6915C8.70075 16.6766 8.41621 16.6766 8.10173 16.6766C7.78724 16.6766 7.50271 16.6766 7.2631 16.6766C7.09837 16.6766 6.87374 16.6766 6.60418 16.6766C6.33462 16.6766 6.03511 16.6766 5.72063 16.6766C5.40614 16.6766 5.12161 16.6915 4.85205 16.6915V16.5432C5.01678 16.5283 5.12161 16.5135 5.21146 16.4839C5.28634 16.4542 5.34624 16.3949 5.37619 16.3059C5.40614 16.2169 5.42112 16.0835 5.42112 15.9055V12.2874C5.42112 12.1094 5.40614 11.976 5.37619 11.887C5.34624 11.798 5.30131 11.7387 5.21146 11.7091C5.13658 11.6794 5.01678 11.6646 4.86703 11.6498V11.5015C4.98683 11.5015 5.15156 11.5163 5.36122 11.5163C5.57087 11.5163 5.79551 11.5163 6.03511 11.5163C6.24477 11.5163 6.4694 11.5163 6.67906 11.5163C6.88872 11.5311 7.06842 11.5163 7.2032 11.5163Z"
                  fill="#000"
                ></path>
                <path
                  d="M84.2969 11.5163C85.2703 11.5163 85.9891 11.7387 86.4533 12.1687C86.9325 12.5988 87.1572 13.2364 87.1572 14.0371C87.1572 14.571 87.0374 15.0307 86.8127 15.431C86.5881 15.8314 86.2437 16.1428 85.8094 16.3504C85.3751 16.5728 84.836 16.6766 84.222 16.6766C84.1022 16.6766 83.9374 16.6766 83.7128 16.6618C83.4882 16.6618 83.3085 16.647 83.1438 16.647C82.9341 16.647 82.7095 16.647 82.4998 16.647C82.2902 16.647 82.1254 16.6618 82.0056 16.6618V16.5135C82.1703 16.4987 82.2752 16.4838 82.365 16.4542C82.4399 16.4245 82.4998 16.3652 82.5298 16.2762C82.5597 16.1873 82.5747 16.0538 82.5747 15.8759V12.2874C82.5747 12.1094 82.5597 11.976 82.5298 11.887C82.4998 11.798 82.4549 11.7387 82.365 11.7091C82.2902 11.6794 82.1704 11.6646 82.0206 11.6497V11.5015C82.1404 11.5015 82.3051 11.5163 82.5148 11.5163C82.7244 11.5163 82.9341 11.5311 83.1438 11.5163C83.3235 11.5163 83.5181 11.5015 83.7428 11.5015C83.9524 11.5163 84.1471 11.5163 84.2969 11.5163ZM84.2819 11.6497C84.0573 11.6497 83.9075 11.6942 83.8326 11.7684C83.7577 11.8573 83.7278 12.0205 83.7278 12.2725V15.9204C83.7278 16.1724 83.7577 16.3356 83.8326 16.4245C83.9075 16.5135 84.0573 16.5432 84.2819 16.5432C84.7012 16.5432 85.0157 16.4542 85.2553 16.2614C85.4949 16.0686 85.6596 15.7869 85.7645 15.4162C85.8693 15.0455 85.9142 14.6006 85.9142 14.0668C85.9142 13.2512 85.7794 12.6433 85.5248 12.2429C85.3002 11.8425 84.8659 11.6497 84.2819 11.6497Z"
                  fill="#000"
                ></path>
                <path
                  d="M91.7996 11.5163C91.7846 11.7239 91.7697 11.9315 91.7547 12.1391C91.7547 12.3319 91.7397 12.495 91.7397 12.5988C91.7397 12.7026 91.7397 12.7915 91.7397 12.8805C91.7397 12.9695 91.7547 13.0436 91.7547 13.1029H91.59C91.545 12.7471 91.4702 12.4653 91.3653 12.2577C91.2605 12.0501 91.1257 11.9018 90.961 11.8129C90.7963 11.7239 90.6016 11.6794 90.377 11.6794H90.0774C89.9277 11.6794 89.8229 11.6942 89.748 11.7091C89.6731 11.7387 89.6282 11.7832 89.5982 11.8573C89.5683 11.9315 89.5683 12.0353 89.5683 12.1984V15.9945C89.5683 16.1428 89.5833 16.2614 89.5982 16.3356C89.6282 16.4097 89.6731 16.4542 89.748 16.4839C89.8229 16.5135 89.9277 16.5135 90.0774 16.5135H90.4369C90.6615 16.5135 90.8562 16.469 91.0209 16.3652C91.1856 16.2763 91.3354 16.1131 91.4552 15.8759C91.575 15.6535 91.6648 15.3421 91.7247 14.9417H91.8895C91.8745 15.1048 91.8745 15.2976 91.8745 15.5497C91.8745 15.6683 91.8745 15.8166 91.8745 16.0242C91.8745 16.2318 91.8895 16.4394 91.9194 16.6618C91.6648 16.647 91.3803 16.647 91.0658 16.647C90.7513 16.647 90.4668 16.647 90.2272 16.647C90.0625 16.647 89.8378 16.647 89.5683 16.647C89.2987 16.647 88.9992 16.647 88.6847 16.647C88.3703 16.647 88.0857 16.6618 87.8162 16.6618V16.5135C87.9809 16.4987 88.0857 16.4839 88.1756 16.4542C88.2504 16.4245 88.3104 16.3652 88.3403 16.2763C88.3703 16.1873 88.3852 16.0538 88.3852 15.8759V12.2874C88.3852 12.1094 88.3703 11.976 88.3403 11.887C88.3104 11.798 88.2654 11.7387 88.1756 11.7091C88.1007 11.6794 87.9809 11.6646 87.8311 11.6498V11.5015C88.1007 11.5015 88.3852 11.5163 88.6997 11.5163C89.0142 11.5163 89.2987 11.5163 89.5833 11.5163C89.8528 11.5163 90.0774 11.5163 90.2422 11.5163C90.4668 11.5163 90.7214 11.5163 91.0059 11.5163C91.3204 11.5311 91.575 11.5311 91.7996 11.5163ZM90.6465 14.0223V14.1706H89.3586V14.0223H90.6465ZM90.8711 13.0585C90.8562 13.3402 90.8412 13.5478 90.8412 13.6961C90.8412 13.8444 90.8412 13.9778 90.8412 14.0965C90.8412 14.2151 90.8412 14.3485 90.8412 14.4968C90.8412 14.6451 90.8562 14.8527 90.8711 15.1345H90.7064C90.6765 14.9713 90.6315 14.8082 90.5716 14.6599C90.5117 14.5117 90.4069 14.393 90.2871 14.3041C90.1673 14.2151 90.0026 14.1706 89.8079 14.1706V14.0223C90.0026 14.0223 90.1673 13.963 90.2871 13.8592C90.4069 13.7554 90.4968 13.6219 90.5567 13.4737C90.6166 13.3254 90.6615 13.1919 90.6914 13.0585H90.8711Z"
                  fill="#000"
                ></path>
                <path
                  d="M36.9594 22.4006C36.8396 22.0003 36.7797 21.4071 36.7797 20.6212V20.5322H31.4634V20.6212C31.4634 21.4219 31.4035 22.0151 31.2687 22.4006C31.1339 22.801 30.8794 23.0679 30.49 23.2014C30.1006 23.3348 29.5316 23.4238 28.7678 23.4683V24.1356C29.3519 24.0911 30.1006 24.0614 31.0441 24.0466C31.9726 24.0318 32.9759 24.0318 34.0542 24.0318C35.0276 24.0318 36.001 24.0318 36.9444 24.0466C37.8879 24.0614 38.6816 24.0911 39.2956 24.1356V23.4683C38.5768 23.4238 38.0526 23.3348 37.6932 23.2014C37.3338 23.0531 37.0942 22.7862 36.9594 22.4006Z"
                  fill="#FA4443"
                ></path>
                <path
                  d="M36.9295 0.765729C35.986 0.780558 35.0126 0.795386 34.0392 0.795386C33.6349 0.795386 33.2306 0.795386 32.8412 0.795386C32.4369 0.795386 32.0475 0.795386 31.6731 0.795386L25.5182 16.7954L18.7792 0.691586C18.0604 0.706415 17.2517 0.736072 16.3233 0.7509C15.3948 0.780558 14.4513 0.795386 13.4929 0.795386C12.9837 0.795386 12.4596 0.780558 11.9205 0.765729C11.3813 0.7509 10.9471 0.721243 10.5876 0.706415V1.3737C11.2765 1.3737 11.8156 1.46267 12.175 1.61096C12.5494 1.75924 12.789 2.02615 12.9088 2.4117C13.0286 2.78241 13.1035 3.39038 13.1035 4.20595V19.0938C13.1035 20.1466 13.0436 20.9919 12.9238 21.585C12.804 22.193 12.5644 22.623 12.205 22.8899C11.8456 23.1568 11.3065 23.3496 10.6026 23.4534V24.1207C10.962 24.0762 11.4113 24.0465 11.9354 24.0317C12.4746 24.0169 12.9987 24.0169 13.5079 24.0169C14.1069 24.0169 14.7508 24.0169 15.4397 24.0317C16.1286 24.0465 16.6827 24.0762 17.117 24.1207V23.4534C16.1435 23.3496 15.4247 23.1568 14.9605 22.8751C14.4962 22.5933 14.2117 22.1336 14.0769 21.4812C13.9422 20.8287 13.8822 19.8945 13.8822 18.6786V2.84172L22.8825 24.1503H23.4216L31.4784 3.31624V16.8695H36.7947V4.20595C36.7947 3.39038 36.8546 2.78241 36.9744 2.39687C37.0942 2.01133 37.3338 1.74441 37.6932 1.59613C38.0527 1.44784 38.5768 1.3737 39.2956 1.34404V0.676758C38.6667 0.721243 37.873 0.736072 36.9295 0.765729Z"
                  fill="#000"
                ></path>
                <path
                  d="M121.586 22.4006C121.466 22.0003 121.406 21.4071 121.406 20.6212V20.5322H116.09V20.6212C116.09 21.4219 116.03 22.0151 115.895 22.4006C115.76 22.801 115.506 23.0679 115.116 23.2014C114.727 23.3348 114.158 23.4238 113.394 23.4683V24.1356C113.978 24.0911 114.727 24.0614 115.671 24.0466C116.599 24.0318 117.602 24.0318 118.681 24.0318C119.654 24.0318 120.627 24.0318 121.571 24.0466C122.514 24.0614 123.308 24.0911 123.922 24.1356V23.4683C123.203 23.4238 122.679 23.3348 122.32 23.2014C121.945 23.0531 121.706 22.7862 121.586 22.4006Z"
                  fill="#FA4443"
                ></path>
                <path
                  d="M121.556 0.765729C120.612 0.780558 119.639 0.795386 118.666 0.795386C118.261 0.795386 117.857 0.795386 117.468 0.795386C117.063 0.795386 116.674 0.795386 116.3 0.795386L110.145 16.7954L103.406 0.691586C102.687 0.706415 101.878 0.736072 100.95 0.7509C100.021 0.765729 99.0778 0.780558 98.1194 0.780558C97.6102 0.780558 97.086 0.765729 96.5469 0.7509C96.0078 0.736072 95.5735 0.706415 95.2141 0.691586V1.35887C95.903 1.3737 96.4271 1.46267 96.8015 1.61096C97.1759 1.75924 97.4155 2.02615 97.5353 2.4117C97.6551 2.79724 97.715 3.40521 97.715 4.22078V19.1086C97.715 20.1615 97.6551 21.0067 97.5353 21.5998C97.4155 22.2078 97.1759 22.6378 96.8165 22.9047C96.4571 23.1716 95.918 23.3644 95.2141 23.4682V24.1355C95.5735 24.091 96.0228 24.0614 96.5469 24.0465C97.086 24.0317 97.6102 24.0317 98.1194 24.0317C98.7184 24.0317 99.3623 24.0317 100.051 24.0465C100.74 24.0614 101.294 24.091 101.728 24.1355V23.4682C100.755 23.3644 100.036 23.1716 99.572 22.8899C99.1227 22.6082 98.8232 22.1485 98.6884 21.496C98.5536 20.8436 98.4937 19.9094 98.4937 18.6934V2.84172L107.494 24.1503H108.033L116.09 3.31624V16.8695H121.406V4.20595C121.406 3.39038 121.466 2.78241 121.586 2.39687C121.706 2.01133 121.945 1.74441 122.305 1.59613C122.664 1.44784 123.188 1.3737 123.907 1.34404V0.676758C123.278 0.721243 122.499 0.736072 121.556 0.765729Z"
                  fill="#000"
                ></path>
                <path
                  d="M48.835 6.31122C48.79 6.74124 48.7751 7.15644 48.7601 7.55681C48.7451 7.95718 48.7451 8.26858 48.7451 8.47618C48.7451 8.66895 48.7451 8.86172 48.7601 9.02484C48.7751 9.20278 48.7751 9.35106 48.79 9.46969H48.4456C48.3408 8.75792 48.191 8.19444 47.9814 7.77924C47.7717 7.36404 47.5021 7.06747 47.1727 6.90436C46.8432 6.74124 46.4539 6.65227 46.0196 6.65227H45.4205C45.121 6.65227 44.9114 6.68193 44.7616 6.72641C44.6119 6.7709 44.522 6.8747 44.4771 7.00816C44.4322 7.15644 44.4022 7.37887 44.4022 7.69027V15.2825C44.4022 15.579 44.4322 15.8015 44.4771 15.9498C44.522 16.098 44.6268 16.187 44.7616 16.2463C44.9114 16.2908 45.121 16.3205 45.4205 16.3205H46.1394C46.5886 16.3205 46.978 16.2315 47.3075 16.0387C47.6519 15.846 47.9364 15.5197 48.176 15.06C48.4156 14.6004 48.5953 13.9776 48.7301 13.2065H49.0746C49.0446 13.5179 49.0296 13.9331 49.0296 14.4373C49.0296 14.6597 49.0296 14.9711 49.0446 15.3863C49.0596 15.8015 49.0895 16.2167 49.1345 16.6615C48.6253 16.6467 48.0712 16.6319 47.4422 16.6319C46.8133 16.6319 46.2442 16.6319 45.765 16.6319C45.4355 16.6319 44.9863 16.6319 44.4322 16.6319C43.8781 16.6319 43.294 16.6319 42.68 16.6319C42.066 16.6319 41.482 16.6467 40.9578 16.6615V16.365C41.2723 16.3501 41.5119 16.3056 41.6617 16.2463C41.8264 16.187 41.9313 16.0684 41.9762 15.8904C42.0361 15.7125 42.0511 15.4456 42.0511 15.1045V7.85338C42.0511 7.4975 42.0211 7.23058 41.9762 7.05264C41.9163 6.88953 41.8115 6.7709 41.6467 6.69676C41.482 6.63744 41.2574 6.59296 40.9429 6.59296V6.29639C41.467 6.31122 42.0511 6.31122 42.6651 6.32604C43.279 6.34087 43.8631 6.34087 44.4172 6.34087C44.9713 6.34087 45.4056 6.34087 45.75 6.34087C46.1993 6.34087 46.7234 6.34087 47.2925 6.34087C47.8615 6.34087 48.3857 6.32604 48.835 6.31122ZM46.5287 11.3084V11.605H43.9529V11.3084H46.5287ZM46.963 9.38072C46.9181 9.92938 46.9031 10.3594 46.9181 10.656C46.9181 10.9525 46.9181 11.2195 46.9181 11.4567C46.9181 11.694 46.9181 11.9609 46.9331 12.2575C46.948 12.554 46.963 12.9692 47.0079 13.5327H46.6635C46.6186 13.1917 46.5287 12.8803 46.3939 12.5837C46.2592 12.2871 46.0645 12.0499 45.8249 11.8719C45.5853 11.694 45.2558 11.605 44.8665 11.605V11.3084C45.2558 11.3084 45.5703 11.2046 45.8099 10.9822C46.0495 10.7746 46.2292 10.5077 46.349 10.2111C46.4838 9.91455 46.5587 9.63281 46.6186 9.36589H46.963V9.38072Z"
                  fill="#000"
                ></path>
                <path
                  d="M55.2294 6.31122C57.1612 6.31122 58.6138 6.74124 59.5573 7.61613C60.5007 8.49101 60.98 9.73661 60.98 11.3677C60.98 12.4354 60.7553 13.3548 60.2911 14.1555C59.8268 14.9563 59.153 15.5642 58.2694 16.0091C57.3858 16.4539 56.3376 16.6615 55.1096 16.6615C54.87 16.6615 54.5405 16.6615 54.0912 16.6467C53.657 16.6319 53.2676 16.6319 52.9531 16.6319C52.5188 16.6319 52.0995 16.6319 51.6802 16.6319C51.2609 16.6319 50.9314 16.6467 50.6768 16.6615V16.365C50.9913 16.3501 51.2309 16.3056 51.3807 16.2463C51.5454 16.187 51.6502 16.0684 51.6952 15.8904C51.7551 15.7125 51.7701 15.4456 51.7701 15.1045V7.85338C51.7701 7.4975 51.7401 7.23058 51.6952 7.05264C51.6353 6.88953 51.5304 6.7709 51.3657 6.69676C51.201 6.63744 50.9763 6.59296 50.6619 6.59296V6.29639C50.9015 6.31122 51.2459 6.31122 51.6652 6.32604C52.0845 6.34087 52.5038 6.34087 52.9082 6.32604C53.2676 6.31122 53.657 6.31122 54.1062 6.29639C54.5555 6.31122 54.9299 6.31122 55.2294 6.31122ZM55.2144 6.57813C54.7651 6.57813 54.4656 6.6671 54.3309 6.83021C54.1961 6.99333 54.1212 7.33438 54.1212 7.83855V15.149C54.1212 15.6532 54.1961 15.9942 54.3309 16.1574C54.4806 16.3205 54.7651 16.4094 55.2294 16.4094C56.053 16.4094 56.712 16.2167 57.1912 15.8311C57.6704 15.4456 58.0148 14.8821 58.2095 14.1407C58.4192 13.3993 58.524 12.4947 58.524 11.4419C58.524 9.81075 58.2694 8.59481 57.7602 7.79407C57.2361 6.9785 56.3825 6.57813 55.2144 6.57813Z"
                  fill="#000"
                ></path>
                <path
                  d="M66.9102 6.31122V6.60779C66.5957 6.62261 66.3561 6.65227 66.1914 6.71159C66.0266 6.7709 65.9218 6.88953 65.8769 7.06747C65.832 7.24541 65.802 7.4975 65.802 7.86821V15.1045C65.802 15.4604 65.832 15.7125 65.8769 15.8904C65.9368 16.0684 66.0416 16.187 66.1914 16.2463C66.3561 16.3056 66.5807 16.3501 66.8952 16.365V16.6615C66.6257 16.6467 66.2962 16.6319 65.8919 16.6319C65.4875 16.6319 65.0832 16.6319 64.6639 16.6319C64.1847 16.6319 63.7354 16.6319 63.3311 16.6319C62.9267 16.6319 62.5973 16.6467 62.3277 16.6615V16.365C62.6422 16.3501 62.8818 16.3056 63.0316 16.2463C63.1963 16.187 63.3011 16.0684 63.346 15.8904C63.4059 15.7125 63.4209 15.4456 63.4209 15.1045V7.85338C63.4209 7.4975 63.391 7.23058 63.346 7.05264C63.2861 6.88953 63.1813 6.7709 63.0166 6.69676C62.8519 6.63744 62.6272 6.59296 62.3127 6.59296V6.29639C62.5673 6.31122 62.8968 6.31122 63.3161 6.32604C63.7204 6.34087 64.1697 6.34087 64.6489 6.34087C65.0682 6.34087 65.4726 6.34087 65.8769 6.32604C66.3112 6.32604 66.6406 6.32604 66.9102 6.31122Z"
                  fill="#000"
                ></path>
                <path
                  d="M73.5145 6.104C74.5628 6.104 75.4763 6.3116 76.255 6.7268C77.0338 7.142 77.6478 7.74997 78.082 8.53588C78.5163 9.3218 78.726 10.2708 78.726 11.3978C78.726 12.4951 78.5013 13.4441 78.0671 14.2597C77.6178 15.0753 77.0038 15.7129 76.2101 16.1726C75.4164 16.6323 74.5179 16.8547 73.4995 16.8547C72.4513 16.8547 71.5378 16.6471 70.759 16.2319C69.9803 15.8167 69.3663 15.2087 68.932 14.4228C68.4977 13.6369 68.2881 12.6879 68.2881 11.5757C68.2881 10.4784 68.5127 9.5294 68.962 8.71383C69.4112 7.89826 70.0252 7.26063 70.804 6.80095C71.5827 6.34126 72.4812 6.104 73.5145 6.104ZM73.4546 6.37092C72.9005 6.37092 72.4213 6.59335 72.017 7.02337C71.6126 7.46823 71.2982 8.06137 71.0735 8.83245C70.8489 9.60354 70.7441 10.4932 70.7441 11.5016C70.7441 12.5396 70.8639 13.4293 71.1184 14.2004C71.373 14.9715 71.7025 15.5498 72.1368 15.965C72.5711 16.3802 73.0353 16.5878 73.5594 16.5878C74.1135 16.5878 74.5928 16.3653 74.9971 15.9353C75.4014 15.4905 75.7159 14.8973 75.9405 14.1114C76.1652 13.3403 76.27 12.4506 76.27 11.4423C76.27 10.4043 76.1502 9.49974 75.8956 8.74348C75.641 7.98723 75.3116 7.39409 74.8773 6.97889C74.443 6.57852 73.9788 6.37092 73.4546 6.37092Z"
                  fill="#000"
                ></path>
                <path
                  d="M135.094 6.31122C135.049 6.74124 135.034 7.15644 135.019 7.55681C135.004 7.95718 135.004 8.26858 135.004 8.47618C135.004 8.66895 135.004 8.86172 135.019 9.02484C135.034 9.20278 135.034 9.35106 135.049 9.46969H134.704C134.6 8.75792 134.45 8.19444 134.24 7.77924C134.03 7.36404 133.761 7.06747 133.431 6.90436C133.102 6.74124 132.713 6.65227 132.278 6.65227H131.679C131.38 6.65227 131.17 6.68193 131.02 6.72641C130.871 6.7709 130.781 6.8747 130.736 7.00816C130.691 7.15644 130.661 7.37887 130.661 7.69027V15.2825C130.661 15.579 130.691 15.8015 130.736 15.9498C130.781 16.098 130.886 16.187 131.02 16.2463C131.17 16.2908 131.38 16.3205 131.679 16.3205H132.398C132.847 16.3205 133.237 16.2315 133.566 16.0387C133.911 15.846 134.195 15.5197 134.435 15.06C134.674 14.6004 134.854 13.9776 134.989 13.2065H135.333C135.303 13.5179 135.288 13.9331 135.288 14.4373C135.288 14.6597 135.288 14.9711 135.303 15.3863C135.318 15.8015 135.348 16.2167 135.393 16.6615C134.884 16.6467 134.33 16.6319 133.701 16.6319C133.072 16.6319 132.503 16.6319 132.024 16.6319C131.694 16.6319 131.245 16.6319 130.691 16.6319C130.137 16.6319 129.553 16.6319 128.939 16.6319C128.325 16.6319 127.741 16.6467 127.217 16.6615V16.365C127.531 16.3501 127.771 16.3056 127.92 16.2463C128.085 16.187 128.19 16.0684 128.235 15.8904C128.295 15.7125 128.31 15.4456 128.31 15.1045V7.85338C128.31 7.4975 128.28 7.23058 128.235 7.05264C128.175 6.88953 128.07 6.7709 127.906 6.69676C127.741 6.63744 127.516 6.59296 127.202 6.59296V6.29639C127.726 6.31122 128.31 6.31122 128.924 6.32604C129.538 6.34087 130.122 6.34087 130.676 6.34087C131.23 6.34087 131.664 6.34087 132.009 6.34087C132.458 6.34087 132.982 6.34087 133.551 6.34087C134.12 6.34087 134.629 6.32604 135.094 6.31122ZM132.788 11.3084V11.605H130.212V11.3084H132.788ZM133.207 9.38072C133.162 9.92938 133.147 10.3594 133.162 10.656C133.162 10.9525 133.162 11.2195 133.162 11.4567C133.162 11.694 133.162 11.9609 133.177 12.2575C133.192 12.554 133.207 12.9692 133.252 13.5327H132.907C132.862 13.1917 132.773 12.8803 132.638 12.5837C132.503 12.2871 132.308 12.0499 132.069 11.8719C131.829 11.694 131.5 11.605 131.11 11.605V11.3084C131.5 11.3084 131.814 11.2046 132.054 10.9822C132.293 10.7746 132.473 10.5077 132.593 10.2111C132.728 9.91455 132.802 9.63281 132.862 9.36589H133.207V9.38072Z"
                  fill="#000"
                ></path>
                <path
                  d="M141.473 6.31122C143.405 6.31122 144.858 6.74124 145.801 7.61613C146.745 8.49101 147.224 9.73661 147.224 11.3677C147.224 12.4354 146.999 13.3548 146.535 14.1555C146.071 14.9563 145.397 15.5642 144.513 16.0091C143.63 16.4539 142.581 16.6615 141.353 16.6615C141.114 16.6615 140.784 16.6615 140.335 16.6467C139.901 16.6319 139.511 16.6319 139.197 16.6319C138.763 16.6319 138.343 16.6319 137.924 16.6319C137.505 16.6319 137.175 16.6467 136.921 16.6615V16.365C137.235 16.3501 137.475 16.3056 137.625 16.2463C137.789 16.187 137.894 16.0684 137.939 15.8904C137.999 15.7125 138.014 15.4456 138.014 15.1045V7.85338C138.014 7.4975 137.984 7.23058 137.939 7.05264C137.879 6.88953 137.774 6.7709 137.61 6.69676C137.445 6.63744 137.22 6.59296 136.906 6.59296V6.29639C137.145 6.31122 137.49 6.31122 137.909 6.32604C138.328 6.34087 138.748 6.34087 139.152 6.32604C139.511 6.31122 139.901 6.31122 140.35 6.29639C140.814 6.31122 141.189 6.31122 141.473 6.31122ZM141.458 6.57813C141.009 6.57813 140.71 6.6671 140.575 6.83021C140.44 6.99333 140.365 7.33438 140.365 7.83855V15.149C140.365 15.6532 140.44 15.9942 140.575 16.1574C140.724 16.3205 141.009 16.4094 141.473 16.4094C142.297 16.4094 142.956 16.2167 143.435 15.8311C143.914 15.4456 144.259 14.8821 144.453 14.1407C144.663 13.3993 144.768 12.4947 144.768 11.4419C144.768 9.81075 144.513 8.59481 144.004 7.79407C143.495 6.9785 142.641 6.57813 141.458 6.57813Z"
                  fill="#000"
                ></path>
                <path
                  d="M153.169 6.31122V6.60779C152.855 6.62261 152.615 6.65227 152.45 6.71159C152.286 6.7709 152.181 6.88953 152.136 7.06747C152.091 7.24541 152.061 7.4975 152.061 7.86821V15.1045C152.061 15.4604 152.091 15.7125 152.136 15.8904C152.196 16.0684 152.301 16.187 152.45 16.2463C152.615 16.3056 152.84 16.3501 153.154 16.365V16.6615C152.885 16.6467 152.555 16.6319 152.151 16.6319C151.747 16.6319 151.342 16.6319 150.923 16.6319C150.444 16.6319 149.994 16.6319 149.59 16.6319C149.186 16.6319 148.856 16.6467 148.587 16.6615V16.365C148.901 16.3501 149.141 16.3056 149.291 16.2463C149.455 16.187 149.56 16.0684 149.605 15.8904C149.665 15.7125 149.68 15.4456 149.68 15.1045V7.85338C149.68 7.4975 149.65 7.23058 149.605 7.05264C149.545 6.88953 149.44 6.7709 149.276 6.69676C149.111 6.63744 148.886 6.59296 148.572 6.59296V6.29639C148.826 6.31122 149.156 6.31122 149.575 6.32604C149.979 6.34087 150.429 6.34087 150.908 6.34087C151.327 6.34087 151.732 6.34087 152.136 6.32604C152.57 6.32604 152.9 6.32604 153.169 6.31122Z"
                  fill="#000"
                ></path>
                <path
                  d="M159.758 6.104C160.807 6.104 161.72 6.3116 162.499 6.7268C163.278 7.142 163.892 7.74997 164.326 8.53588C164.76 9.3218 164.97 10.2708 164.97 11.3978C164.97 12.4951 164.745 13.4441 164.311 14.2597C163.862 15.0753 163.248 15.7129 162.454 16.1726C161.66 16.6323 160.762 16.8547 159.743 16.8547C158.695 16.8547 157.782 16.6471 157.003 16.2319C156.224 15.8167 155.61 15.2087 155.176 14.4228C154.742 13.6369 154.532 12.6879 154.532 11.5757C154.532 10.4784 154.757 9.5294 155.206 8.71383C155.655 7.89826 156.269 7.26063 157.048 6.80095C157.842 6.34126 158.74 6.104 159.758 6.104ZM159.699 6.37092C159.144 6.37092 158.665 6.59335 158.261 7.02337C157.857 7.46823 157.542 8.06137 157.317 8.83245C157.093 9.60354 156.988 10.4932 156.988 11.5016C156.988 12.5396 157.108 13.4293 157.362 14.2004C157.617 14.9715 157.946 15.5498 158.381 15.965C158.815 16.3802 159.279 16.5878 159.803 16.5878C160.357 16.5878 160.837 16.3653 161.241 15.9353C161.645 15.4905 161.96 14.8973 162.184 14.1114C162.409 13.3403 162.514 12.4506 162.514 11.4423C162.514 10.4043 162.394 9.49974 162.14 8.74348C161.885 7.98723 161.555 7.39409 161.121 6.97889C160.702 6.57852 160.223 6.37092 159.699 6.37092Z"
                  fill="#000"
                ></path>
                <path
                  d="M170.166 6.12012C170.75 6.12012 171.2 6.17943 171.514 6.29806C171.828 6.41669 172.098 6.55014 172.323 6.6836C172.442 6.75774 172.532 6.80223 172.607 6.83189C172.682 6.86154 172.757 6.87637 172.817 6.87637C172.982 6.87637 173.086 6.66877 173.146 6.23875H173.491C173.476 6.41669 173.476 6.63912 173.461 6.90603C173.446 7.15811 173.431 7.49917 173.431 7.91437C173.431 8.32957 173.431 8.87822 173.431 9.56034H173.086C173.041 9.05617 172.922 8.56682 172.727 8.07748C172.532 7.60297 172.248 7.2026 171.888 6.90603C171.529 6.59463 171.095 6.44634 170.571 6.44634C170.091 6.44634 169.717 6.5798 169.402 6.84671C169.103 7.11363 168.938 7.46951 168.938 7.94403C168.938 8.32957 169.043 8.67062 169.238 8.95237C169.432 9.23411 169.717 9.50102 170.106 9.76794C170.481 10.0348 170.945 10.3462 171.484 10.717C171.963 11.0135 172.383 11.3249 172.757 11.6215C173.131 11.9181 173.431 12.2591 173.655 12.6447C173.88 13.0302 174 13.4751 174 14.0089C174 14.6465 173.835 15.1803 173.491 15.5955C173.146 16.0107 172.712 16.3221 172.158 16.5446C171.604 16.7522 171.005 16.856 170.346 16.856C169.732 16.856 169.253 16.7967 168.878 16.678C168.519 16.5594 168.204 16.4408 167.965 16.3073C167.755 16.1739 167.575 16.0997 167.456 16.0997C167.291 16.0997 167.186 16.3073 167.126 16.7373H166.782C166.797 16.5001 166.812 16.2332 166.812 15.9218C166.812 15.6104 166.827 15.21 166.827 14.7058C166.827 14.2017 166.827 13.564 166.827 12.793H167.171C167.216 13.4306 167.321 14.0386 167.501 14.602C167.68 15.1655 167.965 15.6104 168.339 15.9514C168.714 16.2925 169.223 16.4556 169.852 16.4556C170.361 16.4556 170.795 16.3221 171.155 16.0404C171.514 15.7735 171.679 15.3583 171.679 14.8096C171.679 14.2017 171.469 13.7123 171.065 13.312C170.645 12.9116 170.121 12.5112 169.477 12.096C169.013 11.7994 168.579 11.488 168.174 11.1915C167.77 10.8949 167.456 10.539 167.201 10.1535C166.961 9.76793 166.842 9.30825 166.842 8.7596C166.842 8.15163 166.991 7.64746 167.306 7.24709C167.62 6.84671 168.025 6.56497 168.534 6.3722C169.058 6.22392 169.597 6.12012 170.166 6.12012Z"
                  fill="#000"
                ></path>
              </svg>